<svg width="94" height="76" viewBox="0 0 94 76" fill="none" xmlns="http://www.w3.org/2000/svg">
<path d="M0 34.3359C2.00521 34.2839 3.63281 33.75 4.88281 32.7344C6.15885 31.6927 7.00521 30.2734 7.42188 28.4766C7.83854 26.6797 8.0599 23.6068 8.08594 19.2578C8.11198 14.9089 8.1901 12.0443 8.32031 10.6641C8.55469 8.47656 8.98438 6.71875 9.60938 5.39062C10.2604 4.0625 11.0547 3.00781 11.9922 2.22656C12.9297 1.41927 14.1276 0.807292 15.5859 0.390625C16.5755 0.130208 18.1901 0 20.4297 0H22.6172V6.13281H21.4062C18.6979 6.13281 16.901 6.6276 16.0156 7.61719C15.1302 8.58073 14.6875 10.7552 14.6875 14.1406C14.6875 20.9635 14.5443 25.2734 14.2578 27.0703C13.7891 29.8568 12.9818 32.0052 11.8359 33.5156C10.7161 35.026 8.94531 36.3672 6.52344 37.5391C9.38802 38.737 11.4583 40.5729 12.7344 43.0469C14.0365 45.4948 14.6875 49.5182 14.6875 55.1172C14.6875 60.1953 14.7396 63.2161 14.8438 64.1797C15.0521 65.9505 15.5729 67.1875 16.4062 67.8906C17.2656 68.5938 18.9323 68.9453 21.4062 68.9453H22.6172V75.0781H20.4297C17.8776 75.0781 16.0286 74.8698 14.8828 74.4531C13.2161 73.8542 11.8359 72.8776 10.7422 71.5234C9.64844 70.1953 8.93229 68.5026 8.59375 66.4453C8.28125 64.388 8.11198 61.0156 8.08594 56.3281C8.0599 51.6406 7.83854 48.3984 7.42188 46.6016C7.00521 44.8047 6.15885 43.3854 4.88281 42.3438C3.63281 41.3021 2.00521 40.7552 0 40.7031V34.3359Z" fill="#00A365"/>
<path d="M93.4766 34.3359V40.7031C91.4714 40.7552 89.8307 41.3021 88.5547 42.3438C87.3047 43.3854 86.4714 44.8047 86.0547 46.6016C85.638 48.3724 85.4167 51.4323 85.3906 55.7812C85.3646 60.1302 85.2865 62.9948 85.1562 64.375C84.9219 66.5885 84.4792 68.3464 83.8281 69.6484C83.2031 70.9766 82.4219 72.0312 81.4844 72.8125C80.5469 73.6198 79.349 74.2318 77.8906 74.6484C76.901 74.9349 75.2865 75.0781 73.0469 75.0781H70.8594V68.9453H72.0703C74.7786 68.9453 76.5755 68.4505 77.4609 67.4609C78.3464 66.4974 78.7891 64.3099 78.7891 60.8984C78.7891 54.388 78.9062 50.2604 79.1406 48.5156C79.5573 45.625 80.3906 43.3203 81.6406 41.6016C82.8906 39.8568 84.6615 38.5026 86.9531 37.5391C83.9583 36.1068 81.849 34.2188 80.625 31.875C79.401 29.5052 78.7891 25.5208 78.7891 19.9219C78.7891 14.8438 78.724 11.8099 78.5938 10.8203C78.4115 9.07552 77.8906 7.86458 77.0312 7.1875C76.1979 6.48438 74.5443 6.13281 72.0703 6.13281H70.8594V0H73.0469C75.599 0 77.4479 0.208333 78.5938 0.625C80.2604 1.19792 81.6406 2.16146 82.7344 3.51562C83.8281 4.86979 84.5312 6.57552 84.8438 8.63281C85.1823 10.6901 85.3646 14.0625 85.3906 18.75C85.4167 23.4375 85.638 26.6797 86.0547 28.4766C86.4714 30.2474 87.3047 31.6536 88.5547 32.6953C89.8307 33.737 91.4714 34.2839 93.4766 34.3359Z" fill="#00A365"/>
</svg>
