<svg width="185" height="86" viewBox="0 0 185 86" fill="none" xmlns="http://www.w3.org/2000/svg">
<g opacity="0.29">
<path d="M7 7H145.5V9H7V7Z" fill="white"/>
<path d="M7.00014 44H145.5V46H7.00014V44Z" fill="white"/>
<path d="M7.00014 48L7 9H8.99998L9.00014 48H7.00014Z" fill="white"/>
<path d="M143.5 48L143.5 9H145.5L145.5 48H143.5Z" fill="white"/>
<path d="M0 0H15V15H0V0Z" fill="white"/>
<path d="M137.5 0H152.5V15H137.5V0Z" fill="white"/>
<path d="M0.000145197 38H15.0001V53H0.000145197V38Z" fill="white"/>
<path d="M137.5 38H152.5V53H137.5V38Z" fill="white"/>
</g>
<path d="M149.444 49.9442L184.594 63.2053L170.928 71.4276L162.705 85.0937L149.444 49.9442Z" fill="#E01BC6"/>
</svg>
