<svg width="218" height="123" viewBox="0 0 218 123" fill="none" xmlns="http://www.w3.org/2000/svg">
<path d="M14.3603 87.6196C10.1551 87.6196 6.79991 86.6553 4.29468 84.7268C1.78945 82.7535 0.35789 79.9729 0 76.3849H5.16703C5.48019 78.5825 6.44202 80.2644 8.05252 81.4304C9.66303 82.5965 11.8104 83.1796 14.4945 83.1796C16.8656 83.1796 18.7221 82.7311 20.0642 81.8341C21.4063 80.9371 22.0773 79.6589 22.0773 77.9995C22.0773 76.8334 21.6971 75.8243 20.9366 74.9722C20.176 74.0752 18.655 73.3352 16.3735 72.7522L10.8709 71.3394C7.73937 70.5322 5.39072 69.2988 3.82495 67.6394C2.25918 65.9352 1.4763 63.917 1.4763 61.5848C1.4763 58.6248 2.57233 56.2926 4.76441 54.5884C6.95648 52.8393 9.93144 51.9647 13.6893 51.9647C17.4024 51.9647 20.4221 52.8617 22.7484 54.6556C25.0747 56.4496 26.3944 58.9387 26.7075 62.123H21.5405C21.2273 60.2842 20.3774 58.8714 18.9905 57.8848C17.6037 56.8981 15.7695 56.4048 13.488 56.4048C11.2959 56.4048 9.59592 56.8308 8.38804 57.6829C7.18017 58.4902 6.57623 59.6563 6.57623 61.1812C6.57623 62.3472 7.00122 63.3563 7.85121 64.2085C8.74593 65.0606 10.2222 65.7782 12.2801 66.3612L17.6484 67.8412C20.8247 68.6934 23.2181 69.994 24.8286 71.7431C26.4391 73.4922 27.2444 75.6001 27.2444 78.0668C27.2444 81.0716 26.1036 83.4262 23.822 85.1305C21.5405 86.7899 18.3866 87.6196 14.3603 87.6196Z" fill="white"/>
<path d="M46.0666 87.6196C43.8298 87.6196 41.839 87.1711 40.0943 86.2741C38.3496 85.3323 36.9852 84.0317 36.001 82.3723C35.0168 80.668 34.5247 78.7171 34.5247 76.5195V52.6374H39.893V75.1067C39.893 77.708 40.5193 79.6589 41.7719 80.9595C43.0693 82.2601 44.9035 82.9105 47.2745 82.9105C49.4218 82.9105 51.3231 82.4171 52.9784 81.4304C54.6336 80.4438 55.931 79.0759 56.8704 77.3268C57.8546 75.5328 58.3467 73.4922 58.3467 71.2049L59.2191 79.345C58.1007 81.9014 56.3559 83.9196 53.9849 85.3996C51.6139 86.8796 48.9745 87.6196 46.0666 87.6196ZM58.6822 86.9469V78.8741H58.3467V52.6374H63.7151V86.9469H58.6822Z" fill="white"/>
<path d="M74.4428 86.9469V52.6374H79.4757V60.7103H79.8112V86.9469H74.4428ZM98.9359 86.9469V64.4776C98.9359 61.8763 98.2872 59.9254 96.9899 58.6248C95.6925 57.3242 93.7689 56.6738 91.2189 56.6738C88.9821 56.6738 86.9913 57.1672 85.2466 58.1539C83.5467 59.1405 82.2046 60.5084 81.2204 62.2575C80.2809 64.0066 79.8112 66.0473 79.8112 68.3794L78.9388 60.2393C80.102 57.683 81.869 55.6647 84.2401 54.1847C86.6558 52.7047 89.3847 51.9647 92.4268 51.9647C96.0057 51.9647 98.8688 52.9962 101.016 55.0593C103.208 57.0775 104.304 59.746 104.304 63.0648V86.9469H98.9359Z" fill="white"/>
<path d="M114.614 86.9469V52.6374H119.647V61.383H119.982V86.9469H114.614ZM119.982 69.0521L119.11 60.9121C119.915 57.9969 121.346 55.7769 123.404 54.252C125.462 52.7271 127.833 51.9647 130.517 51.9647C131.636 51.9647 132.396 52.0544 132.799 52.2338V57.4139C132.575 57.3242 132.262 57.2793 131.86 57.2793C131.457 57.2345 130.965 57.212 130.383 57.212C126.983 57.212 124.389 58.2436 122.599 60.3066C120.854 62.3248 119.982 65.24 119.982 69.0521Z" fill="white"/>
<path d="M139.188 86.9469V52.6374H144.556V86.9469H139.188Z" fill="white"/>
<path d="M166.918 87.6196C162.713 87.6196 159.357 86.6553 156.852 84.7268C154.347 82.7535 152.915 79.9729 152.558 76.3849H157.725C158.038 78.5825 159 80.2644 160.61 81.4304C162.221 82.5965 164.368 83.1796 167.052 83.1796C169.423 83.1796 171.28 82.7311 172.622 81.8341C173.964 80.9371 174.635 79.6589 174.635 77.9995C174.635 76.8334 174.255 75.8243 173.494 74.9722C172.734 74.0752 171.213 73.3352 168.931 72.7522L163.428 71.3394C160.297 70.5322 157.948 69.2988 156.382 67.6394C154.817 65.9352 154.034 63.917 154.034 61.5848C154.034 58.6248 155.13 56.2926 157.322 54.5884C159.514 52.8393 162.489 51.9647 166.247 51.9647C169.96 51.9647 172.98 52.8617 175.306 54.6556C177.632 56.4496 178.952 58.9387 179.265 62.123H174.098C173.785 60.2842 172.935 58.8714 171.548 57.8848C170.161 56.8981 168.327 56.4048 166.046 56.4048C163.853 56.4048 162.153 56.8308 160.946 57.6829C159.738 58.4902 159.134 59.6563 159.134 61.1812C159.134 62.3472 159.559 63.3563 160.409 64.2085C161.303 65.0606 162.78 65.7782 164.838 66.3612L170.206 67.8412C173.382 68.6934 175.776 69.994 177.386 71.7431C178.997 73.4922 179.802 75.6001 179.802 78.0668C179.802 81.0716 178.661 83.4262 176.38 85.1305C174.098 86.7899 170.944 87.6196 166.918 87.6196Z" fill="white"/>
<path d="M202.23 87.6196C198.965 87.6196 196.079 86.8572 193.574 85.3323C191.069 83.7626 189.1 81.6323 187.669 78.9413C186.237 76.2504 185.521 73.1558 185.521 69.6576C185.521 66.1594 186.215 63.0872 187.602 60.4412C189.033 57.7502 191.024 55.6647 193.574 54.1847C196.124 52.7047 199.054 51.9647 202.365 51.9647C205.541 51.9647 208.292 52.6599 210.619 54.0502C212.99 55.4405 214.801 57.3914 216.054 59.903C217.351 62.4145 218 65.3745 218 68.7831C218 69.2315 217.978 69.6576 217.933 70.0612C217.933 70.4649 217.888 70.9134 217.799 71.4067H189.548V66.8994H214.511L212.766 69.3885C212.766 65.2624 211.849 62.1006 210.015 59.903C208.225 57.6605 205.675 56.5393 202.365 56.5393C198.965 56.5393 196.213 57.7278 194.111 60.1048C192.053 62.4369 191.024 65.5988 191.024 69.5903C191.024 73.6716 192.053 76.9455 194.111 79.4122C196.213 81.8341 199.009 83.045 202.499 83.045C204.691 83.045 206.615 82.5741 208.27 81.6323C209.925 80.6456 211.133 79.2553 211.893 77.4613H216.993C215.875 80.6007 213.996 83.0899 211.357 84.9287C208.762 86.7226 205.72 87.6196 202.23 87.6196Z" fill="white"/>
<path d="M144.945 42.8828C144.945 44.5547 143.593 45.9101 141.926 45.9101C140.258 45.9101 138.906 44.5547 138.906 42.8828C138.906 41.2109 140.258 39.8555 141.926 39.8555C143.593 39.8555 144.945 41.2109 144.945 42.8828Z" fill="#FFDB11"/>
<path d="M183.057 0C186.005 1.5181e-07 184.263 12.0893 188.562 16.4859C192.862 20.8826 204.289 18.4974 204.289 21.7138C204.288 24.93 192.862 23.347 188.562 27.7437C184.263 32.1403 186.203 43.827 183.057 43.827C179.911 43.827 181.459 32.1403 177.16 27.7437C172.86 23.347 161.824 25.1302 161.824 21.7136C161.824 18.2953 172.86 20.8824 177.159 16.4857C181.459 12.0891 180.303 -1.41828e-07 183.057 0Z" fill="#FFDB11"/>
<path d="M157.92 25.934C159.114 25.934 158.408 30.828 160.149 32.6079C161.89 34.3878 166.516 33.4222 166.516 34.7243C166.515 36.0263 161.89 35.3855 160.149 37.1653C158.409 38.9452 159.194 43.6763 157.92 43.6763C156.647 43.6763 157.274 38.9452 155.533 37.1653C153.792 35.3855 149.325 36.1074 149.325 34.7242C149.325 33.3404 153.792 34.3877 155.533 32.6078C157.273 30.8279 156.805 25.934 157.92 25.934Z" fill="#FFDB11"/>
<path d="M2.85865 123V109.147H6.98154V110.18H4.05042V121.967H6.98154V123H2.85865Z" fill="#8D96A2"/>
<path d="M20.427 121.256V113.022H21.7154V121.256H20.427ZM20.3304 111.149V109.631H21.812V111.149H20.3304Z" fill="#8D96A2"/>
<path d="M35.8916 121.256V113.022H37.0995V114.959H37.18V121.256H35.8916ZM41.7699 121.256V115.864C41.7699 115.239 41.6143 114.771 41.3029 114.459C40.9915 114.147 40.5299 113.991 39.9179 113.991C39.381 113.991 38.9032 114.109 38.4845 114.346C38.0765 114.583 37.7544 114.911 37.5182 115.331C37.2927 115.751 37.18 116.24 37.18 116.8L36.9706 114.846C37.2498 114.233 37.6739 113.749 38.2429 113.393C38.8227 113.038 39.4777 112.861 40.2077 112.861C41.0667 112.861 41.7538 113.108 42.2692 113.603C42.7953 114.088 43.0583 114.728 43.0583 115.525V121.256H41.7699Z" fill="#8D96A2"/>
<path d="M59.2133 121.256L55.8152 113.022H57.2002L60.0347 120.384H59.5193L62.3377 113.022H63.6583L60.2602 121.256H59.2133Z" fill="#8D96A2"/>
<path d="M80.0008 121.418C79.217 121.418 78.5245 121.235 77.9232 120.869C77.322 120.492 76.8496 119.981 76.506 119.335C76.1624 118.689 75.9906 117.946 75.9906 117.107C75.9906 116.267 76.1571 115.53 76.4899 114.895C76.8335 114.249 77.3113 113.749 77.9232 113.393C78.5352 113.038 79.2385 112.861 80.033 112.861C80.7953 112.861 81.4556 113.027 82.0139 113.361C82.583 113.695 83.0178 114.163 83.3184 114.766C83.6298 115.369 83.7855 116.079 83.7855 116.897C83.7855 117.005 83.7801 117.107 83.7694 117.204C83.7694 117.301 83.7586 117.408 83.7372 117.527H76.9569V116.445H82.948L82.5293 117.042C82.5293 116.052 82.3092 115.293 81.869 114.766C81.4395 114.228 80.8275 113.958 80.033 113.958C79.217 113.958 78.5567 114.244 78.0521 114.814C77.5582 115.374 77.3113 116.133 77.3113 117.091C77.3113 118.07 77.5582 118.856 78.0521 119.448C78.5567 120.029 79.2278 120.32 80.0652 120.32C80.5913 120.32 81.053 120.207 81.4502 119.981C81.8475 119.744 82.1374 119.41 82.3199 118.98H83.5439C83.2755 119.733 82.8245 120.331 82.1911 120.772C81.5684 121.202 80.8383 121.418 80.0008 121.418Z" fill="#8D96A2"/>
<path d="M97.321 121.256V113.022H98.5289V114.959H98.6094V121.256H97.321ZM103.199 121.256V115.864C103.199 115.239 103.044 114.771 102.732 114.459C102.421 114.147 101.959 113.991 101.347 113.991C100.81 113.991 100.333 114.109 99.9139 114.346C99.5059 114.583 99.1838 114.911 98.9476 115.331C98.7222 115.751 98.6094 116.24 98.6094 116.8L98.4001 114.846C98.6792 114.233 99.1033 113.749 99.6724 113.393C100.252 113.038 100.907 112.861 101.637 112.861C102.496 112.861 103.183 113.108 103.699 113.603C104.225 114.088 104.488 114.728 104.488 115.525V121.256H103.199Z" fill="#8D96A2"/>
<path d="M121.623 121.402C120.71 121.402 120.045 121.197 119.626 120.788C119.218 120.368 119.014 119.766 119.014 118.98V111.101L120.302 110.616V118.964C120.302 119.426 120.42 119.765 120.657 119.981C120.893 120.196 121.279 120.304 121.816 120.304C122.031 120.304 122.213 120.293 122.364 120.271C122.525 120.239 122.654 120.201 122.75 120.158V121.256C122.643 121.299 122.487 121.332 122.283 121.353C122.09 121.385 121.87 121.402 121.623 121.402ZM117.323 114.12V113.022H122.75V114.12H117.323Z" fill="#8D96A2"/>
<path d="M136.004 121.256V113.022H137.292V121.256H136.004ZM135.907 111.149V109.631H137.389V111.149H135.907Z" fill="#8D96A2"/>
<path d="M154.851 121.418C154.046 121.418 153.338 121.229 152.726 120.853C152.114 120.476 151.636 119.965 151.292 119.319C150.959 118.662 150.793 117.925 150.793 117.107C150.793 116.278 150.965 115.546 151.308 114.911C151.652 114.276 152.124 113.775 152.726 113.41C153.338 113.044 154.046 112.861 154.851 112.861C155.667 112.861 156.376 113.044 156.977 113.41C157.589 113.775 158.062 114.276 158.394 114.911C158.738 115.546 158.91 116.278 158.91 117.107C158.91 117.925 158.738 118.662 158.394 119.319C158.062 119.965 157.589 120.476 156.977 120.853C156.376 121.229 155.667 121.418 154.851 121.418ZM154.851 120.32C155.41 120.32 155.893 120.185 156.301 119.916C156.709 119.636 157.026 119.254 157.251 118.77C157.477 118.285 157.589 117.726 157.589 117.091C157.589 116.144 157.337 115.385 156.832 114.814C156.338 114.244 155.678 113.958 154.851 113.958C154.035 113.958 153.375 114.244 152.87 114.814C152.366 115.385 152.114 116.144 152.114 117.091C152.114 117.726 152.226 118.285 152.452 118.77C152.677 119.254 152.994 119.636 153.402 119.916C153.821 120.185 154.304 120.32 154.851 120.32Z" fill="#8D96A2"/>
<path d="M172.438 121.256V113.022H173.646V114.959H173.726V121.256H172.438ZM178.316 121.256V115.864C178.316 115.239 178.16 114.771 177.849 114.459C177.538 114.147 177.076 113.991 176.464 113.991C175.927 113.991 175.449 114.109 175.031 114.346C174.623 114.583 174.301 114.911 174.064 115.331C173.839 115.751 173.726 116.24 173.726 116.8L173.517 114.846C173.796 114.233 174.22 113.749 174.789 113.393C175.369 113.038 176.024 112.861 176.754 112.861C177.613 112.861 178.3 113.108 178.815 113.603C179.342 114.088 179.605 114.728 179.605 115.525V121.256H178.316Z" fill="#8D96A2"/>
<path d="M196.429 121.418C195.42 121.418 194.615 121.186 194.013 120.723C193.412 120.25 193.069 119.583 192.983 118.721H194.223C194.298 119.249 194.529 119.652 194.915 119.932C195.302 120.212 195.817 120.352 196.461 120.352C197.03 120.352 197.476 120.244 197.798 120.029C198.12 119.814 198.281 119.507 198.281 119.109C198.281 118.829 198.19 118.587 198.007 118.382C197.825 118.167 197.46 117.989 196.912 117.85L195.592 117.51C194.84 117.317 194.276 117.021 193.901 116.622C193.525 116.213 193.337 115.729 193.337 115.169C193.337 114.459 193.6 113.899 194.126 113.49C194.652 113.07 195.366 112.861 196.268 112.861C197.159 112.861 197.884 113.076 198.442 113.506C199.001 113.937 199.317 114.534 199.393 115.299H198.152C198.077 114.857 197.873 114.518 197.54 114.281C197.208 114.045 196.767 113.926 196.22 113.926C195.694 113.926 195.286 114.028 194.996 114.233C194.706 114.427 194.561 114.707 194.561 115.073C194.561 115.352 194.663 115.595 194.867 115.799C195.082 116.004 195.436 116.176 195.93 116.316L197.218 116.671C197.981 116.875 198.555 117.188 198.942 117.607C199.328 118.027 199.521 118.533 199.521 119.125C199.521 119.846 199.248 120.411 198.7 120.82C198.152 121.219 197.395 121.418 196.429 121.418Z" fill="#8D96A2"/>
<path d="M215.598 109.147V123H211.475V121.967H214.406V110.18H211.475V109.147H215.598Z" fill="#8D96A2"/>
</svg>
