<svg width="91" height="78" viewBox="0 0 91 78" fill="none" xmlns="http://www.w3.org/2000/svg">
<path d="M55.9944 9.2364C60.6715 9.2364 57.9072 27.9917 64.7282 34.8127C71.5492 41.6337 89.6785 37.9333 89.6777 42.9231C89.6769 47.9128 71.5495 45.4569 64.7285 52.2779C57.9075 59.0989 60.9855 77.2296 55.9944 77.2296C51.0033 77.2296 53.4595 59.0989 46.6385 52.2779C39.8175 45.4569 22.3089 48.2235 22.309 42.9229C22.3091 37.6197 39.8169 41.6334 46.6379 34.8124C53.4589 27.9914 51.6248 9.2364 55.9944 9.2364Z" fill="#FFDB11"/>
<path d="M15.1478 13.3155C17.1833 13.3155 15.9802 21.4778 18.9487 24.4463C21.9172 27.4148 29.8071 25.8044 29.8067 27.976C29.8064 30.1475 21.9173 29.0787 18.9488 32.0472C15.9803 35.0157 17.3199 42.9061 15.1478 42.9061C12.9757 42.9061 14.0446 35.0157 11.0761 32.0472C8.1076 29.0787 0.487904 30.2827 0.487932 27.9759C0.487959 25.6679 8.10736 27.4147 11.0759 24.4462C14.0444 21.4777 13.2461 13.3155 15.1478 13.3155Z" fill="#FFDB11"/>
<path d="M40.467 0.199302C41.6487 0.199302 40.9503 4.93779 42.6736 6.66111C44.3969 8.38443 48.9773 7.44952 48.9771 8.7102C48.9769 9.97084 44.397 9.35036 42.6737 11.0737C40.9504 12.797 41.728 17.3777 40.467 17.3777C39.206 17.3777 39.8266 12.797 38.1033 11.0737C36.38 9.35036 31.9564 10.0493 31.9565 8.71014C31.9565 7.3703 36.3798 8.38436 38.1031 6.66104C39.8264 4.93772 39.363 0.199302 40.467 0.199302Z" fill="#FFDB11"/>
</svg>
